<svg width="93" height="20" viewBox="0 0 93 20" fill="none" xmlns="http://www.w3.org/2000/svg">
<g clip-path="url(#clip0_8741_22353)">
<path d="M56.4959 0C57.8347 0 59.1882 0.995294 59.1882 2.95647V6.21412H57.8194V3.00176C57.8194 2.20176 57.3435 1.50824 56.5106 1.50824C55.5735 1.50824 55.2759 2.27765 55.2759 3.06176C55.2759 3.86176 55.5435 4.94706 55.7965 5.70118L58.5635 13.68C58.8906 14.6453 59.1882 15.9271 59.1882 16.9229C59.1882 19.05 57.8794 20 56.5706 20C55.2312 20 53.8924 19.0047 53.8924 17.0435V13.7553H55.2759V16.9982C55.2759 17.7982 55.7818 18.4918 56.5853 18.4918C57.4924 18.4918 57.8194 17.7224 57.8194 16.9382C57.8194 16.1382 57.5371 14.9018 57.2694 14.1782L54.4729 6.19882C54.1453 5.23412 53.8777 4.07235 53.8777 3.07706C53.8777 0.92 55.1871 0 56.4959 0ZM49.2665 0C50.6053 0 51.9588 0.995294 51.9588 2.95647V6.21412H50.5906V3.00176C50.5906 2.20176 50.1141 1.50824 49.2812 1.50824C48.3441 1.50824 48.0465 2.27765 48.0465 3.06176C48.0465 3.86176 48.3147 4.94706 48.5671 5.70118L51.3341 13.68C51.6612 14.6453 51.9588 15.9271 51.9588 16.9229C51.9588 19.05 50.65 20 49.3412 20C48.0024 20 46.6635 19.0047 46.6635 17.0435V13.7553H48.0465V16.9982C48.0465 17.7982 48.5524 18.4918 49.3559 18.4918C50.263 18.4918 50.5906 17.7224 50.5906 16.9382C50.5906 16.1382 50.3082 14.9018 50.04 14.1782L47.2435 6.19882C46.9159 5.23412 46.6482 4.07235 46.6482 3.07706C46.6482 0.92 47.9577 0 49.2665 0ZM41.9924 0C43.3759 0 44.64 1.08588 44.64 3.00176V16.9682C44.64 18.8535 43.3459 19.97 41.963 19.97C40.5794 19.97 39.3147 18.8841 39.3147 16.9682V3.00176C39.3147 1.11588 40.6088 0 41.9924 0ZM84.2824 0.316471L86.7371 13.9065L87.0788 16.1535L87.4065 13.9065L89.8606 0.316471H91.7647V19.6529H90.3812V6.30471L90.4106 3.93647L90.0541 6.36529L87.6441 19.6535H86.4988L84.0894 6.36529L83.7324 3.93647L83.7618 6.30471V19.6529H82.3782V0.316471H84.2824ZM78.5412 0.316471L80.8018 19.6529H79.3888L78.9424 15.5659H76.4582L75.9818 19.6529H74.6288L76.8894 0.316471H78.5406H78.5412ZM73.4088 0.316471V1.68941H70.0765V9.21588H72.4865V10.5882H70.0765V18.2806H73.4088V19.6529H68.6935V0.316471H73.4088ZM64.1118 0.316471C65.3465 0.316471 66.5365 1.26706 66.5365 2.97118V7.73765C66.5365 8.86882 66.0159 9.65294 65.2718 9.95529C66.0159 10.2865 66.5365 11.0406 66.5365 12.1571V17.0135H66.5512C66.5512 18.7029 65.3765 19.6529 64.1418 19.6529H61.2259V0.316471H64.1118ZM34.6441 0.316471C35.983 0.316471 37.173 1.26706 37.173 3.16765V7.78294C37.173 8.86882 36.6224 9.66824 35.8788 10C36.6377 10.3318 37.173 11.2065 37.173 12.3376V19.6529H35.7894V12.3529C35.7894 11.2824 35.15 10.7388 34.4506 10.7388H33.2312V19.6529H31.8471V0.316471H34.6441ZM41.963 1.47824C41.3382 1.47824 40.6982 1.96059 40.6982 2.95647V17.0288C40.6982 18.0241 41.3382 18.5218 41.963 18.5218C42.6324 18.5218 43.2571 18.0088 43.2571 17.0288V2.95647C43.2571 1.96059 42.6324 1.47824 41.963 1.47824ZM63.8588 10.6782H62.6241V18.2653H63.8441C64.5582 18.2653 65.1829 17.7376 65.1829 16.7124V12.3229H65.1682C65.1682 11.2524 64.5429 10.6782 63.8588 10.6782ZM77.7077 3.24294L77.5141 5.70176L76.5771 14.2076H78.8235L77.8712 5.70176L77.7077 3.24294ZM63.8588 1.68941H62.6241V9.35118H63.8441C64.543 9.35118 65.1829 8.77824 65.1829 7.75235V3.24294H65.1682C65.1682 2.23235 64.5429 1.68941 63.8588 1.68941ZM34.4506 1.68941H33.2312V9.30588H34.4506C35.15 9.30588 35.7894 8.70235 35.7894 7.69177V3.24294C35.7894 2.24765 35.1647 1.68941 34.4506 1.68941ZM29.7059 16.9682C29.7059 18.8535 28.4118 19.97 27.0282 19.97C25.6447 19.97 24.3806 18.8841 24.3806 16.9682V3.00176C24.3806 1.11588 25.6747 0 27.0577 0C28.4412 0 29.7059 1.08588 29.7059 3.00176V8.25059H28.3224V2.95647C28.3224 1.96059 27.6977 1.47824 27.0282 1.47824C26.4035 1.47824 25.7635 1.96059 25.7635 2.95647V17.0288C25.7635 18.0241 26.4035 18.5218 27.0282 18.5218C27.6977 18.5218 28.3224 18.0088 28.3224 17.0288V11.7194H29.7059V16.9682Z" fill="#03313F"/>
<path d="M7.40766 13.6499H1.52588e-05V19.6529H19.0847V13.6499H11.6771L9.53472 9.98462L7.40766 13.6499Z" fill="#F53251"/>
<path d="M1.52588e-05 0.316406V6.31994H7.40766L9.53472 9.98464L11.6771 6.31994H19.0847V0.316406H1.52588e-05Z" fill="#77D9E2"/>
</g>
<defs>
<clipPath id="clip0_8741_22353">
<rect width="91.7647" height="20" fill="white"/>
</clipPath>
</defs>
</svg>
