<svg width="109" height="36" viewBox="0 0 109 36" fill="none" xmlns="http://www.w3.org/2000/svg">
<rect x="0.5" y="0.5" width="107.5" height="35" rx="1.5" fill="#FAFAFA"/>
<rect x="0.5" y="0.5" width="107.5" height="35" rx="1.5" stroke="#D9D9D9"/>
<g clip-path="url(#clip0_8717_285)">
<path d="M64.4959 8C65.8347 8 67.1882 8.99529 67.1882 10.9565V14.2141H65.8194V11.0018C65.8194 10.2018 65.3435 9.50824 64.5106 9.50824C63.5735 9.50824 63.2759 10.2776 63.2759 11.0618C63.2759 11.8618 63.5435 12.9471 63.7965 13.7012L66.5635 21.68C66.8906 22.6453 67.1882 23.9271 67.1882 24.9229C67.1882 27.05 65.8794 28 64.5706 28C63.2312 28 61.8924 27.0047 61.8924 25.0435V21.7553H63.2759V24.9982C63.2759 25.7982 63.7818 26.4918 64.5853 26.4918C65.4924 26.4918 65.8194 25.7224 65.8194 24.9382C65.8194 24.1382 65.5371 22.9018 65.2694 22.1782L62.4729 14.1988C62.1453 13.2341 61.8777 12.0724 61.8777 11.0771C61.8777 8.92 63.1871 8 64.4959 8ZM57.2665 8C58.6053 8 59.9588 8.99529 59.9588 10.9565V14.2141H58.5906V11.0018C58.5906 10.2018 58.1141 9.50824 57.2812 9.50824C56.3441 9.50824 56.0465 10.2776 56.0465 11.0618C56.0465 11.8618 56.3147 12.9471 56.5671 13.7012L59.3341 21.68C59.6612 22.6453 59.9588 23.9271 59.9588 24.9229C59.9588 27.05 58.65 28 57.3412 28C56.0024 28 54.6635 27.0047 54.6635 25.0435V21.7553H56.0465V24.9982C56.0465 25.7982 56.5524 26.4918 57.3559 26.4918C58.263 26.4918 58.5906 25.7224 58.5906 24.9382C58.5906 24.1382 58.3082 22.9018 58.04 22.1782L55.2435 14.1988C54.9159 13.2341 54.6482 12.0724 54.6482 11.0771C54.6482 8.92 55.9577 8 57.2665 8ZM49.9924 8C51.3759 8 52.64 9.08588 52.64 11.0018V24.9682C52.64 26.8535 51.3459 27.97 49.963 27.97C48.5794 27.97 47.3147 26.8841 47.3147 24.9682V11.0018C47.3147 9.11588 48.6088 8 49.9924 8ZM92.2824 8.31647L94.7371 21.9065L95.0788 24.1535L95.4065 21.9065L97.8606 8.31647H99.7647V27.6529H98.3812V14.3047L98.4106 11.9365L98.0541 14.3653L95.6441 27.6535H94.4988L92.0894 14.3653L91.7324 11.9365L91.7618 14.3047V27.6529H90.3782V8.31647H92.2824ZM86.5412 8.31647L88.8018 27.6529H87.3888L86.9424 23.5659H84.4582L83.9818 27.6529H82.6288L84.8894 8.31647H86.5406H86.5412ZM81.4088 8.31647V9.68941H78.0765V17.2159H80.4865V18.5882H78.0765V26.2806H81.4088V27.6529H76.6935V8.31647H81.4088ZM72.1118 8.31647C73.3465 8.31647 74.5365 9.26706 74.5365 10.9712V15.7376C74.5365 16.8688 74.0159 17.6529 73.2718 17.9553C74.0159 18.2865 74.5365 19.0406 74.5365 20.1571V25.0135H74.5512C74.5512 26.7029 73.3765 27.6529 72.1418 27.6529H69.2259V8.31647H72.1118ZM42.6441 8.31647C43.983 8.31647 45.173 9.26706 45.173 11.1676V15.7829C45.173 16.8688 44.6224 17.6682 43.8788 18C44.6377 18.3318 45.173 19.2065 45.173 20.3376V27.6529H43.7894V20.3529C43.7894 19.2824 43.15 18.7388 42.4506 18.7388H41.2312V27.6529H39.8471V8.31647H42.6441ZM49.963 9.47824C49.3382 9.47824 48.6982 9.96059 48.6982 10.9565V25.0288C48.6982 26.0241 49.3382 26.5218 49.963 26.5218C50.6324 26.5218 51.2571 26.0088 51.2571 25.0288V10.9565C51.2571 9.96059 50.6324 9.47824 49.963 9.47824ZM71.8588 18.6782H70.6241V26.2653H71.8441C72.5582 26.2653 73.1829 25.7376 73.1829 24.7124V20.3229H73.1682C73.1682 19.2524 72.5429 18.6782 71.8588 18.6782ZM85.7077 11.2429L85.5141 13.7018L84.5771 22.2076H86.8235L85.8712 13.7018L85.7077 11.2429ZM71.8588 9.68941H70.6241V17.3512H71.8441C72.543 17.3512 73.1829 16.7782 73.1829 15.7524V11.2429H73.1682C73.1682 10.2324 72.5429 9.68941 71.8588 9.68941ZM42.4506 9.68941H41.2312V17.3059H42.4506C43.15 17.3059 43.7894 16.7024 43.7894 15.6918V11.2429C43.7894 10.2476 43.1647 9.68941 42.4506 9.68941ZM37.7059 24.9682C37.7059 26.8535 36.4118 27.97 35.0282 27.97C33.6447 27.97 32.3806 26.8841 32.3806 24.9682V11.0018C32.3806 9.11588 33.6747 8 35.0577 8C36.4412 8 37.7059 9.08588 37.7059 11.0018V16.2506H36.3224V10.9565C36.3224 9.96059 35.6977 9.47824 35.0282 9.47824C34.4035 9.47824 33.7635 9.96059 33.7635 10.9565V25.0288C33.7635 26.0241 34.4035 26.5218 35.0282 26.5218C35.6977 26.5218 36.3224 26.0088 36.3224 25.0288V19.7194H37.7059V24.9682Z" fill="#03313F"/>
<path d="M15.4077 21.65H8.00002V27.653H27.0847V21.65H19.6771L17.5347 17.9847L15.4077 21.65Z" fill="#F53251"/>
<path d="M8.00002 8.31653V14.3201H15.4077L17.5347 17.9848L19.6771 14.3201H27.0847V8.31653H8.00002Z" fill="#77D9E2"/>
</g>
<defs>
<clipPath id="clip0_8717_285">
<rect width="91.7647" height="20" fill="white" transform="translate(8 8)"/>
</clipPath>
</defs>
</svg>
