<svg width="16" height="16" viewBox="0 0 16 16" fill="none" xmlns="http://www.w3.org/2000/svg">
<path d="M6.91202 4.35668C7.34708 3.92162 7.9357 3.64011 8.60108 3.64011C9.4712 3.64011 10.239 4.12635 10.6484 4.84292C11.0067 4.68937 11.3906 4.58701 11.8001 4.58701C13.3868 4.58701 14.6663 5.8666 14.6663 7.45329C14.6663 9.03998 13.3868 10.3196 11.8001 10.3196C11.5953 10.3196 11.4162 10.294 11.237 10.2684C10.8788 10.9082 10.1878 11.3432 9.39443 11.3432C9.06173 11.3432 8.75463 11.2665 8.47312 11.1385C8.11484 11.983 7.27031 12.5717 6.27223 12.5717C5.24856 12.5717 4.35284 11.9319 4.02015 11.0106C3.8666 11.0361 3.71305 11.0617 3.5595 11.0617C2.33109 11.0617 1.33301 10.0637 1.33301 8.83525C1.33301 8.01631 1.76807 7.29974 2.43346 6.91586C2.3055 6.60876 2.22872 6.25047 2.22872 5.89219C2.22872 4.48464 3.38035 3.33301 4.81349 3.33301C5.70921 3.3586 6.45137 3.74248 6.91202 4.35668Z" fill="#1B96FF"/>
</svg>
