<svg width="348" height="52" viewBox="0 0 348 52" fill="none" xmlns="http://www.w3.org/2000/svg">
<rect x="0.5" y="0.5" width="347" height="51" rx="1.5" fill="#FAFAFA"/>
<rect x="0.5" y="0.5" width="347" height="51" rx="1.5" stroke="#D9D9D9"/>
<path d="M10.5156 36V16.2715H13.373L20.127 32.7324H20.3457L27.0996 16.2715H29.957V36H27.6602V20.9336H27.5098L21.2754 36H19.1973L12.9629 20.9336H12.8125V36H10.5156ZM38.0344 36.2598C35.2316 36.2598 33.1125 34.5645 33.1125 31.8848V31.8574C33.1125 29.2324 35.0539 27.7148 38.4855 27.5098L42.7102 27.25V25.9102C42.7102 24.0918 41.6027 23.1074 39.4016 23.1074C37.6379 23.1074 36.4758 23.7637 36.093 24.9121L36.0793 24.9531H33.7004L33.7141 24.8711C34.0969 22.5605 36.3391 21.002 39.4836 21.002C43.0793 21.002 45.0891 22.8477 45.0891 25.9102V36H42.7102V33.8262H42.4914C41.5617 35.3984 40.0168 36.2598 38.0344 36.2598ZM35.5461 31.8301C35.5461 33.3203 36.8176 34.1953 38.5266 34.1953C40.9465 34.1953 42.7102 32.6094 42.7102 30.5039V29.1641L38.7727 29.4102C36.5305 29.5469 35.5461 30.3398 35.5461 31.8027V31.8301ZM47.5609 36L52.6059 28.6309L47.5062 21.2617H50.309L53.809 26.7441H54.0277L57.4867 21.2617H60.1527L55.1488 28.5352L60.2211 36H57.432L53.9457 30.4355H53.727L50.227 36H47.5609ZM63.9781 18.418C63.0758 18.418 62.3375 17.6797 62.3375 16.7773C62.3375 15.875 63.0758 15.1367 63.9781 15.1367C64.8805 15.1367 65.6188 15.875 65.6188 16.7773C65.6188 17.6797 64.8805 18.418 63.9781 18.418ZM62.775 36V21.2617H65.1539V36H62.775ZM74.9949 36.2598C70.7977 36.2598 68.2 33.3613 68.2 28.6445V28.6172C68.2 23.8867 70.7977 21.002 74.9949 21.002C79.1922 21.002 81.7898 23.8867 81.7898 28.6172V28.6445C81.7898 33.3613 79.1922 36.2598 74.9949 36.2598ZM74.9949 34.1543C77.784 34.1543 79.3563 32.1172 79.3563 28.6445V28.6172C79.3563 25.1309 77.784 23.1074 74.9949 23.1074C72.2059 23.1074 70.6336 25.1309 70.6336 28.6172V28.6445C70.6336 32.1172 72.2059 34.1543 74.9949 34.1543ZM92.257 36V16.2715H99.6945C103.4 16.2715 106.025 18.8281 106.025 22.5742V22.6016C106.025 26.3477 103.4 28.959 99.6945 28.959H94.718V36H92.257ZM99.0656 18.459H94.718V26.7715H99.0656C101.882 26.7715 103.509 25.2266 103.509 22.6289V22.6016C103.509 20.0039 101.882 18.459 99.0656 18.459ZM109.194 36V15.4102H111.573V36H109.194ZM119.486 36.2598C116.683 36.2598 114.564 34.5645 114.564 31.8848V31.8574C114.564 29.2324 116.505 27.7148 119.937 27.5098L124.162 27.25V25.9102C124.162 24.0918 123.054 23.1074 120.853 23.1074C119.089 23.1074 117.927 23.7637 117.545 24.9121L117.531 24.9531H115.152L115.166 24.8711C115.548 22.5605 117.791 21.002 120.935 21.002C124.531 21.002 126.541 22.8477 126.541 25.9102V36H124.162V33.8262H123.943C123.013 35.3984 121.468 36.2598 119.486 36.2598ZM116.998 31.8301C116.998 33.3203 118.269 34.1953 119.978 34.1953C122.398 34.1953 124.162 32.6094 124.162 30.5039V29.1641L120.224 29.4102C117.982 29.5469 116.998 30.3398 116.998 31.8027V31.8301ZM135.425 36.1094C132.389 36.1094 131.118 34.9883 131.118 32.1719V23.2305H128.794V21.2617H131.118V17.4473H133.579V21.2617H136.805V23.2305H133.579V31.5703C133.579 33.3066 134.18 34.0039 135.712 34.0039C136.136 34.0039 136.368 33.9902 136.805 33.9492V35.9727C136.341 36.0547 135.889 36.1094 135.425 36.1094ZM140.645 36V23.2305H138.197V21.2617H140.645V19.6211C140.645 16.6816 142.121 15.2734 144.924 15.2734C145.498 15.2734 146.018 15.3145 146.51 15.4102V17.3105C146.223 17.2559 145.826 17.2422 145.402 17.2422C143.707 17.2422 143.023 18.0762 143.023 19.6895V21.2617H146.373V23.2305H143.023V36H140.645ZM154.532 36.2598C150.335 36.2598 147.738 33.3613 147.738 28.6445V28.6172C147.738 23.8867 150.335 21.002 154.532 21.002C158.73 21.002 161.327 23.8867 161.327 28.6172V28.6445C161.327 33.3613 158.73 36.2598 154.532 36.2598ZM154.532 34.1543C157.321 34.1543 158.894 32.1172 158.894 28.6445V28.6172C158.894 25.1309 157.321 23.1074 154.532 23.1074C151.743 23.1074 150.171 25.1309 150.171 28.6172V28.6445C150.171 32.1172 151.743 34.1543 154.532 34.1543ZM164.319 36V21.2617H166.698V23.4492H166.916C167.477 21.9043 168.858 21.002 170.854 21.002C171.305 21.002 171.811 21.0566 172.043 21.0977V23.4082C171.551 23.3262 171.1 23.2715 170.58 23.2715C168.311 23.2715 166.698 24.707 166.698 26.8672V36H164.319ZM174.556 36V21.2617H176.935V23.5039H177.154C177.81 21.918 179.205 21.002 181.132 21.002C183.129 21.002 184.523 22.0547 185.207 23.5859H185.425C186.218 22.0273 187.9 21.002 189.937 21.002C192.945 21.002 194.627 22.7246 194.627 25.8145V36H192.248V26.3613C192.248 24.1875 191.25 23.1074 189.171 23.1074C187.121 23.1074 185.767 24.6523 185.767 26.5254V36H183.388V25.9922C183.388 24.2422 182.185 23.1074 180.326 23.1074C178.398 23.1074 176.935 24.7891 176.935 26.8672V36H174.556ZM205.695 36V16.2715H208.156V36H205.695ZM212.187 36V21.2617H214.566V23.4766H214.784C215.523 21.918 216.904 21.002 219.077 21.002C222.386 21.002 224.232 22.957 224.232 26.457V36H221.853V27.0312C221.853 24.3789 220.759 23.1074 218.407 23.1074C216.056 23.1074 214.566 24.6934 214.566 27.2773V36H212.187ZM233.075 36.1094C230.039 36.1094 228.768 34.9883 228.768 32.1719V23.2305H226.444V21.2617H228.768V17.4473H231.229V21.2617H234.455V23.2305H231.229V31.5703C231.229 33.3066 231.83 34.0039 233.362 34.0039C233.786 34.0039 234.018 33.9902 234.455 33.9492V35.9727C233.991 36.0547 233.539 36.1094 233.075 36.1094ZM243.107 36.2598C238.896 36.2598 236.353 33.3066 236.353 28.6855V28.6719C236.353 24.1191 238.951 21.002 242.957 21.002C246.962 21.002 249.396 23.9824 249.396 28.3848V29.3145H238.787C238.855 32.3633 240.537 34.1406 243.162 34.1406C245.158 34.1406 246.388 33.1973 246.785 32.3086L246.839 32.1855H249.218L249.191 32.2949C248.685 34.291 246.58 36.2598 243.107 36.2598ZM242.943 23.1211C240.755 23.1211 239.087 24.6113 238.828 27.4141H246.976C246.73 24.502 245.117 23.1211 242.943 23.1211ZM258.458 41.1953C254.903 41.1953 252.634 39.5957 252.264 37.1758L252.292 37.1621H254.753L254.766 37.1758C255.026 38.2969 256.339 39.0898 258.458 39.0898C261.096 39.0898 262.669 37.8457 262.669 35.6719V32.6914H262.45C261.52 34.3184 259.852 35.2344 257.829 35.2344C254.014 35.2344 251.649 32.2812 251.649 28.1523V28.125C251.649 23.9961 254.028 21.002 257.884 21.002C259.962 21.002 261.575 22.0273 262.477 23.6953H262.641V21.2617H265.02V35.7949C265.02 39.0898 262.477 41.1953 258.458 41.1953ZM258.348 33.1289C261.083 33.1289 262.723 31.0781 262.723 28.1523V28.125C262.723 25.1992 261.069 23.1074 258.348 23.1074C255.614 23.1074 254.083 25.1992 254.083 28.125V28.1523C254.083 31.0781 255.614 33.1289 258.348 33.1289ZM268.75 36V21.2617H271.129V23.4492H271.348C271.908 21.9043 273.289 21.002 275.285 21.002C275.736 21.002 276.242 21.0566 276.475 21.0977V23.4082C275.982 23.3262 275.531 23.2715 275.012 23.2715C272.742 23.2715 271.129 24.707 271.129 26.8672V36H268.75ZM282.761 36.2598C279.958 36.2598 277.839 34.5645 277.839 31.8848V31.8574C277.839 29.2324 279.78 27.7148 283.212 27.5098L287.437 27.25V25.9102C287.437 24.0918 286.329 23.1074 284.128 23.1074C282.364 23.1074 281.202 23.7637 280.82 24.9121L280.806 24.9531H278.427L278.441 24.8711C278.823 22.5605 281.066 21.002 284.21 21.002C287.806 21.002 289.816 22.8477 289.816 25.9102V36H287.437V33.8262H287.218C286.288 35.3984 284.743 36.2598 282.761 36.2598ZM280.273 31.8301C280.273 33.3203 281.544 34.1953 283.253 34.1953C285.673 34.1953 287.437 32.6094 287.437 30.5039V29.1641L283.499 29.4102C281.257 29.5469 280.273 30.3398 280.273 31.8027V31.8301ZM298.7 36.1094C295.664 36.1094 294.393 34.9883 294.393 32.1719V23.2305H292.069V21.2617H294.393V17.4473H296.854V21.2617H300.08V23.2305H296.854V31.5703C296.854 33.3066 297.455 34.0039 298.987 34.0039C299.411 34.0039 299.643 33.9902 300.08 33.9492V35.9727C299.616 36.0547 299.164 36.1094 298.7 36.1094ZM304.193 18.418C303.291 18.418 302.552 17.6797 302.552 16.7773C302.552 15.875 303.291 15.1367 304.193 15.1367C305.095 15.1367 305.834 15.875 305.834 16.7773C305.834 17.6797 305.095 18.418 304.193 18.418ZM302.99 36V21.2617H305.369V36H302.99ZM315.21 36.2598C311.013 36.2598 308.415 33.3613 308.415 28.6445V28.6172C308.415 23.8867 311.013 21.002 315.21 21.002C319.407 21.002 322.005 23.8867 322.005 28.6172V28.6445C322.005 33.3613 319.407 36.2598 315.21 36.2598ZM315.21 34.1543C317.999 34.1543 319.571 32.1172 319.571 28.6445V28.6172C319.571 25.1309 317.999 23.1074 315.21 23.1074C312.421 23.1074 310.848 25.1309 310.848 28.6172V28.6445C310.848 32.1172 312.421 34.1543 315.21 34.1543ZM324.996 36V21.2617H327.375V23.4766H327.594C328.332 21.918 329.713 21.002 331.887 21.002C335.195 21.002 337.041 22.957 337.041 26.457V36H334.662V27.0312C334.662 24.3789 333.568 23.1074 331.217 23.1074C328.865 23.1074 327.375 24.6934 327.375 27.2773V36H324.996Z" fill="black" fill-opacity="0.88"/>
</svg>
